<svg xmlns="http://www.w3.org/2000/svg" viewBox="0 0 606 606"><g id="Layer_2" data-name="Layer 2"><g id="Option1"><rect id="rect3004" x="3" y="3" width="600" height="600" rx="37.5" fill="#009845"/><path id="rect3004-2" data-name="rect3004" d="M565.5,3A37.5,37.5,0,0,1,603,40.5v525A37.5,37.5,0,0,1,565.5,603H40.5A37.5,37.5,0,0,1,3,565.5V40.5A37.5,37.5,0,0,1,40.5,3h525m0-3H40.5A40.55,40.55,0,0,0,0,40.5v525A40.55,40.55,0,0,0,40.5,606h525A40.55,40.55,0,0,0,606,565.5V40.5A40.55,40.55,0,0,0,565.5,0Z" fill="#fff"/><path id="path3006" d="M565.91,30.59a11.46,11.46,0,0,0-5.35,1.75,152.17,152.17,0,0,1-76.37,23.57L452.88,57a123.56,123.56,0,0,0-50.79,12.81A42.77,42.77,0,0,1,355.34,64a27.3,27.3,0,0,0-31.75-2.66,17.14,17.14,0,0,1-19.4-1.21A47.38,47.38,0,0,0,253,55.44a36.6,36.6,0,0,1-38.69-3,36.4,36.4,0,0,0-21-7.16L45.88,42.41a8.32,8.32,0,0,0-8.5,8.16,1.08,1.08,0,0,0,0,.18V463.06a8.33,8.33,0,0,0,8.33,8.33,7.92,7.92,0,0,0,.85-.05A21.81,21.81,0,0,1,67.63,482,71,71,0,0,0,91.38,506.5a144.56,144.56,0,0,0,53.06,19.94A380.6,380.6,0,0,0,188.09,531a51.57,51.57,0,0,1,36.13,17.25,83,83,0,0,0,81.5,25.53,52.78,52.78,0,0,1,26.62.47,25,25,0,0,0,19.38-2.47l9.5-5.56a27.45,27.45,0,0,0,4.44-3.22,12.09,12.09,0,0,1,13.12-2,17,17,0,0,0,22.6-8.28,78.07,78.07,0,0,1,51.31-42.72A137.63,137.63,0,0,0,554.63,357.91a43.39,43.39,0,0,1,8.06-31.72,35.4,35.4,0,0,0,1.4-39.91,10.82,10.82,0,0,1,3.35-14.92,10,10,0,0,1,.9-.52A17.59,17.59,0,0,0,578,255.16V41.94a11.35,11.35,0,0,0-11.33-11.37ZM129.59,144.06q14.32,0,24.38,6.5t17.22,20.38a103.66,103.66,0,0,1,7.37,23.5A140.06,140.06,0,0,1,181.25,222,135.73,135.73,0,0,1,177,256.22q-4.25,16.33-12.06,26.44-12.52,16.79-36.22,16.78-15.89,0-26.19-6.5t-17-20.38a101.61,101.61,0,0,1-7.59-23.28,136.21,136.21,0,0,1,1.34-61.78q4.47-15.9,12.06-26.66a41.42,41.42,0,0,1,15.91-12.53Q116.64,144.07,129.59,144.06Zm333.72,0q14.31,0,24.38,6.5t17.22,20.38a103.66,103.66,0,0,1,7.37,23.5A140.06,140.06,0,0,1,515,222a135.73,135.73,0,0,1-4.25,34.25q-4.25,16.33-12.06,26.44-12.53,16.79-36.25,16.78-15.89,0-26.16-6.5t-17-20.38a101.13,101.13,0,0,1-7.59-23.28A136.21,136.21,0,0,1,413,187.5q4.47-15.9,12.06-26.66a41.26,41.26,0,0,1,15.88-12.53Q450.33,144.07,463.31,144.06Zm-248.87,2.69h23.72v60.44h54.56V146.75h23.69v150H292.72V231.37H238.16v65.38H214.44Zm137.59,0h24.16v150H352ZM127,168.22a20.45,20.45,0,0,0-12.4,4.06q-5.82,4.49-9.63,14.53a69.31,69.31,0,0,0-4.47,16.35A133.69,133.69,0,0,0,99.19,222a118.62,118.62,0,0,0,2.22,23.28c1.49,7.46,3.73,13.6,6.72,18.37a24.88,24.88,0,0,0,8.5,8.72,23.38,23.38,0,0,0,12.09,2.91q8.28,0,13.62-4.47c3.73-3,6.88-7.84,9.41-14.56.75-1.94,1.47-4.25,2.22-6.94a83.57,83.57,0,0,0,1.78-8.72c.6-3.13,1.05-6.27,1.34-9.4s.47-6.21.47-9.19a115.39,115.39,0,0,0-2.25-23.5,60.31,60.31,0,0,0-6.72-18.6,23.83,23.83,0,0,0-8.25-8.5,24.7,24.7,0,0,0-11.18-3.12c-.73,0-1.43-.05-2.13,0Zm333.69,0a20.46,20.46,0,0,0-12.41,4.06q-5.81,4.49-9.59,14.53a69.31,69.31,0,0,0-4.47,16.35A133.69,133.69,0,0,0,432.91,222a117.86,117.86,0,0,0,2.22,23.28c1.49,7.46,3.73,13.6,6.71,18.37a25.05,25.05,0,0,0,8.5,8.72,23.33,23.33,0,0,0,12.07,2.91q8.26,0,13.65-4.47c3.73-3,6.84-7.84,9.38-14.56.74-1.94,1.5-4.25,2.25-6.94a83.57,83.57,0,0,0,1.78-8.72c.6-3.13,1-6.27,1.34-9.4s.44-6.21.44-9.19a115.47,115.47,0,0,0-2.22-23.5,60.57,60.57,0,0,0-6.72-18.6,23.89,23.89,0,0,0-8.28-8.5,24.57,24.57,0,0,0-11.15-3.12c-.73,0-1.46-.05-2.16,0ZM57,340.5H101.5v11.62H85.56V428H72.88V352.12H57Zm56.53,0H126v62.94c0,4.18,1.11,7.54,3.38,10.06a11.42,11.42,0,0,0,8.9,3.78,10.53,10.53,0,0,0,8.35-3.78q3.39-3.78,3.4-10.06V340.5h12.53v61.37a37.38,37.38,0,0,1-.25,4.72,25.64,25.64,0,0,1-.53,3.91,25.19,25.19,0,0,1-1.06,3.41,29.82,29.82,0,0,1-1.56,3.37,26.65,26.65,0,0,1-9,8.88,22.64,22.64,0,0,1-11.88,3.4,24.43,24.43,0,0,1-12.4-3.4,25.21,25.21,0,0,1-9-8.88,29.92,29.92,0,0,1-1.57-3.37,26.49,26.49,0,0,1-1-3.41c-.26-1.22-.48-2.51-.65-3.91s-.13-3-.13-4.72Zm68.09,0h26.13a24.38,24.38,0,0,1,9.25,1.69,21.05,21.05,0,0,1,7.31,4.72,18.69,18.69,0,0,1,4.72,7.43,25.85,25.85,0,0,1,1.69,9.53,26.44,26.44,0,0,1-3.13,13.32,17.56,17.56,0,0,1-9.4,7.84l12.53,43H217.75l-11.59-41.13h-12V428H181.59Zm63.75,0h12.57l24,52.5V340.5h12.53V428h-9.53l-27-58.63V428H245.34Zm68.13,0h26.12a22.73,22.73,0,0,1,9.25,1.84,19.52,19.52,0,0,1,7.32,4.94,19.91,19.91,0,0,1,4.72,7.72,28.78,28.78,0,0,1,1.68,10.06q0,12-6,18.28c-3.92,4.18-9.57,6.25-17,6.25H326V428H313.47Zm61.22,0H387V428H374.69Zm31.62,0h12.53v35l20-35h14.5l-18.15,30.69L455.41,428H442.22l-15.41-42.72-8,14.78V428H406.31Zm63.75,0h41.16v12.28H482.63v22.06h18.15v12H482.63v28.85h32V428H470.06ZM194.13,352.78v22.06h12.93c3.66,0,6.43-.92,8.35-2.75s3-4.65,3-8.22a10.67,10.67,0,0,0-3.13-8.09,11.38,11.38,0,0,0-8.22-3Zm131.87,0v24.81h12.94c3.65,0,6.43-1.1,8.34-3.28s3-5.24,3-9.25a12.62,12.62,0,0,0-3.12-8.9,10.63,10.63,0,0,0-8.22-3.38Z" fill="#fff"/></g></g></svg>