<svg xmlns="http://www.w3.org/2000/svg" viewBox="0 0 75.61 75.61"><g id="Layer_2" data-name="Layer 2"><g id="Inspiration"><circle cx="37.81" cy="37.81" r="37.21" fill="#009845"/><path d="M37.81,75.61A37.81,37.81,0,0,1,11.07,11.07,37.81,37.81,0,0,1,64.54,64.54,37.55,37.55,0,0,1,37.81,75.61Zm0-74.42A36.62,36.62,0,1,0,74.42,37.81,36.66,36.66,0,0,0,37.81,1.19Z" fill="#fff"/><path d="M24.71,28.9c0,5.05-2.82,9.26-7.54,9.26S9.63,34,9.63,28.9s2.82-9.27,7.54-9.27S24.71,23.84,24.71,28.9Zm-12.32,0c0,3.39,1.41,6.73,4.78,6.73S22,32.29,22,28.9s-1.41-6.74-4.78-6.74S12.39,25.5,12.39,28.9Z" fill="#fff"/><path d="M17.17,38.22a6.84,6.84,0,0,1-5.59-2.76,10.84,10.84,0,0,1-2-6.56,10.85,10.85,0,0,1,2-6.57,6.84,6.84,0,0,1,5.59-2.76,6.84,6.84,0,0,1,5.59,2.76,10.85,10.85,0,0,1,2,6.57,10.84,10.84,0,0,1-2,6.56A6.84,6.84,0,0,1,17.17,38.22Zm0-18.53c-4.4,0-7.48,3.79-7.48,9.21s3.08,9.2,7.48,9.2,7.48-3.79,7.48-9.2S21.57,19.69,17.17,19.69Zm0,16c-3.58,0-4.84-3.66-4.84-6.79s1.26-6.8,4.84-6.8S22,25.76,22,28.9,20.74,35.69,17.17,35.69Zm0-13.47c-3.49,0-4.72,3.6-4.72,6.68s1.23,6.67,4.72,6.67S21.89,32,21.89,28.9,20.66,22.22,17.17,22.22Z" fill="#fff"/><path d="M27.66,20.05h2.76v7h7.16v-7h2.76V37.74H37.58v-8H30.42v8H27.66Z" fill="#fff"/><path d="M40.4,37.8H37.52v-8h-7v8H27.6V20h2.88v7h7V20H40.4Zm-2.76-.12h2.64V20.11H37.64v7H30.36v-7H27.72V37.68h2.64v-8h7.28Z" fill="#fff"/><path d="M44.79,20.05h2.75V37.74H44.79Z" fill="#fff"/><path d="M47.6,37.8H44.73V20H47.6Zm-2.75-.12h2.63V20.11H44.85Z" fill="#fff"/><path d="M65.66,28.9c0,5.05-2.82,9.26-7.53,9.26S50.59,34,50.59,28.9s2.82-9.27,7.54-9.27S65.66,23.84,65.66,28.9Zm-12.32,0c0,3.39,1.41,6.73,4.79,6.73s4.78-3.34,4.78-6.73-1.41-6.74-4.78-6.74S53.34,25.5,53.34,28.9Z" fill="#fff"/><path d="M58.13,38.22a6.84,6.84,0,0,1-5.59-2.76,10.77,10.77,0,0,1-2-6.56,10.78,10.78,0,0,1,2-6.57,7,7,0,0,1,11.17,0,10.78,10.78,0,0,1,2,6.57,10.77,10.77,0,0,1-2,6.56A6.84,6.84,0,0,1,58.13,38.22Zm0-18.53c-4.41,0-7.48,3.79-7.48,9.21s3.07,9.2,7.48,9.2,7.48-3.79,7.48-9.2S62.53,19.69,58.13,19.69Zm0,16c-3.58,0-4.85-3.66-4.85-6.79s1.27-6.8,4.85-6.8S63,25.76,63,28.9,61.7,35.69,58.13,35.69Zm0-13.47c-3.49,0-4.73,3.6-4.73,6.68s1.24,6.67,4.73,6.67S62.85,32,62.85,28.9,61.61,22.22,58.13,22.22Z" fill="#fff"/><path d="M13.45,43.94H11v10H9.86v-10H7.66V43h5.79Z" fill="#fff"/><path d="M11.36,54.25H9.52v-10H7.32V42.62h6.47v1.66H11.36Zm-1.16-.68h.48v-10h2.43v-.3H8v.3H10.2Z" fill="#fff"/><path d="M22,50.47c0,3-1.84,3.66-3.32,3.66s-3.31-.71-3.31-3.66V43h1.1v6.71c0,1.7.12,3.37,2.21,3.37s2.22-1.67,2.22-3.37V43H22Z" fill="#fff"/><path d="M18.67,54.47a3.78,3.78,0,0,1-2.43-.8A4,4,0,0,1,15,50.47V42.62H16.8v7.05c0,2,.28,3,1.87,3s1.88-1,1.88-3V42.62h1.78v7.85a4,4,0,0,1-1.23,3.2A3.75,3.75,0,0,1,18.67,54.47Zm-3-11.17v7.17c0,2.89,1.86,3.32,3,3.32s3-.43,3-3.32V43.3h-.42v6.37c0,1.39,0,3.71-2.56,3.71s-2.55-2.32-2.55-3.71V43.3Z" fill="#fff"/><path d="M26.77,43c3.3,0,3.86,1.8,3.86,3.06a2.89,2.89,0,0,1-2,2.78l2,5.11H29.42L27.49,49H25.38v4.93H24.26V43Zm-1.39,5h1.5c2.2,0,2.64-1,2.64-2,0-1.5-.92-2-2.43-2H25.38Z" fill="#fff"/><path d="M31.16,54.25h-2l-1.93-4.93H25.72v4.93h-1.8V42.62h2.85c3.66,0,4.2,2.13,4.2,3.4a3.23,3.23,0,0,1-1.9,3Zm-1.51-.68h.51l-2-5,.34-.11A2.56,2.56,0,0,0,30.3,46c0-1.81-1.19-2.72-3.53-2.72H24.6V53.57H25V48.64h2.69Zm-2.77-5.24H25V43.6h2.05c1.83,0,2.76.8,2.76,2.38S28.85,48.33,26.88,48.33Zm-1.16-.67h1.16c2,0,2.3-.85,2.3-1.68,0-1.19-.63-1.7-2.09-1.7H25.72Z" fill="#fff"/><path d="M33.75,53.91H32.67V43h1.71l4.1,8.63h0V43H39.6V53.91H38.51L33.78,44h0Z" fill="#fff"/><path d="M39.93,54.25H38.3L34.09,45.4v8.85H32.33V42.62H34.6l3.57,7.52V42.62h1.76Zm-1.2-.68h.53V43.3h-.41v8.62h-.58l-4.1-8.62H33V53.57h.4v-10H34Z" fill="#fff"/><path d="M44.75,43c2.63,0,3.45,1.73,3.45,3s-.76,3-3.62,3H43v4.93H41.86V43ZM43,48h.92c1.45,0,3.2-.06,3.2-2s-1.89-2-3.35-2H43Z" fill="#fff"/><path d="M43.31,54.25H41.52V42.62h3.23c2.62,0,3.79,1.67,3.79,3.33,0,.79-.29,3.37-4,3.37H43.31Zm-1.11-.68h.43V48.64h1.95c3,0,3.28-1.88,3.28-2.69,0-1.22-.81-2.65-3.11-2.65H42.2Zm1.69-5.24H42.63V43.6h1.22a6.27,6.27,0,0,1,2.29.28A2,2,0,0,1,47.43,46C47.43,48.33,45.21,48.33,43.89,48.33Zm-.58-.67h.58c1.62,0,2.86-.13,2.86-1.69a1.36,1.36,0,0,0-.86-1.46,5.84,5.84,0,0,0-2-.23h-.54Z" fill="#fff"/><path d="M51.25,53.91H50.09V43h1.16Z" fill="#fff"/><path d="M51.59,54.25H49.75V42.62h1.84Zm-1.16-.68h.48V43.3h-.48Z" fill="#fff"/><path d="M58.54,43h1.17l-2.8,4L60,53.91h-1.2L56.2,48l-1.57,2.22v3.68H53.58V43h1.05v5.57Z" fill="#fff"/><path d="M60.55,54.25H58.61l-2.48-5.56L55,50.34v3.91H53.25V42.62H55v4.83l3.39-4.83h2L57.3,47Zm-1.5-.68h.45l-3-6.61,2.53-3.66h-.34l-4.43,6.31V43.3h-.37V53.57h.37V50.13l2-2.8Z" fill="#fff"/><path d="M67.14,43.94H62.86v3.73h3.06v1H62.86v4.26h4.57v1h-5.6V43h5.31Z" fill="#fff"/><path d="M67.77,54.25H61.49V42.62h6v1.66H63.2v3h3.06V49H63.2v3.58h4.57Zm-5.6-.68h4.92v-.31H62.52V48.32h3.06V48H62.52V43.6H66.8v-.3H62.17Z" fill="#fff"/></g></g></svg>